<?xml version="1.0" standalone="no"?>
<!DOCTYPE svg PUBLIC "-//W3C//DTD SVG 20010904//EN"
 "http://www.w3.org/TR/2001/REC-SVG-20010904/DTD/svg10.dtd">
<svg version="1.0" xmlns="http://www.w3.org/2000/svg"
 width="500.000000pt" height="500.000000pt" viewBox="0 0 500.000000 500.000000"
 preserveAspectRatio="xMidYMid meet">
<metadata>
Created by potrace 1.14, written by Peter Selinger 2001-2017
</metadata>
<g transform="translate(0.000000,500.000000) scale(0.100000,-0.100000)"
fill="#000000" stroke="none">
<path d="M650 4985 c-336 -68 -587 -329 -639 -665 -9 -56 -11 -536 -9 -1865 3
-1955 -1 -1799 58 -1957 66 -177 261 -372 438 -438 157 -59 8 -55 2002 -55
1994 0 1845 -4 2002 55 178 66 372 260 438 438 59 157 55 8 55 2002 0 1994 4
1845 -55 2002 -66 177 -261 372 -438 438 -158 59 1 55 -1977 57 -1466 1 -1822
-1 -1875 -12z m1415 -1176 c53 -15 110 -73 125 -128 50 -186 -176 -318 -311
-182 -98 98 -62 260 68 306 47 17 67 18 118 4z m840 0 c53 -15 110 -73 125
-128 50 -186 -176 -318 -311 -182 -98 98 -62 260 68 306 47 17 67 18 118 4z
m-705 -1309 l0 -500 -190 0 -190 0 0 500 0 500 190 0 190 0 0 -500z m840 -172
c0 -740 0 -737 -62 -867 -44 -92 -131 -178 -228 -223 -111 -53 -165 -63 -330
-63 -132 1 -152 3 -223 28 -148 51 -252 139 -313 262 -34 70 -63 181 -64 243
l0 32 185 0 185 0 0 -26 c0 -80 59 -170 132 -199 55 -22 151 -22 206 0 49 20
102 78 122 132 11 31 15 169 17 696 l4 657 184 0 185 0 0 -672z"/>
</g>
</svg>
